<svg id="Layer_2" data-name="Layer 2" xmlns="http://www.w3.org/2000/svg" viewBox="0 0 188 44"><defs><style>.cls-1{fill:#47ad48;}.cls-2{fill:#006f32;}.cls-3{fill:#008d36;}</style></defs><title>button</title><polygon points="188 6 186 6 186 4 184 4 184 2 182 2 182 0 6 0 6 2 4 2 4 4 2 4 2 6 0 6 0 38 2 38 2 40 4 40 4 42 6 42 6 44 182 44 182 42 184 42 184 40 186 40 186 38 188 38 188 6"/><polygon class="cls-1" points="184 6 184 4 182 4 182 2 6 2 6 4 4 4 4 6 2 6 2 8 186 8 186 6 184 6"/><polygon class="cls-2" points="2 36 2 38 4 38 4 40 6 40 6 42 182 42 182 40 184 40 184 38 186 38 186 36 2 36"/><polygon class="cls-3" points="186 8 186 36 184 36 184 38 182 38 182 40 6 40 6 38 4 38 4 36 2 36 2 8 4 8 4 6 6 6 6 4 182 4 182 6 184 6 184 8 186 8"/></svg>