<svg xmlns="http://www.w3.org/2000/svg" viewBox="0 0 202 29.3"><defs><style>.cls-1,.cls-3,.cls-5,.cls-7{fill:#201600;}.cls-1{opacity:0.3;}.cls-2{fill:#afaeae;}.cls-3,.cls-6{opacity:0.2;}.cls-4{fill:#e20000;}.cls-5{opacity:0.3;}</style></defs><title>start</title><g id="_1" data-name="1"><polygon class="cls-1" points="3.96 18.95 14.31 18.95 14.31 25.85 18.83 25.85 18.83 22.4 22.28 22.4 22.28 18.95 25.73 18.95 25.73 10.97 22.28 10.97 22.28 7.52 18.83 7.52 18.83 4.07 14.31 4.07 14.31 10.97 3.96 10.97 3.96 18.95"/><polygon class="cls-2" points="23.77 8.98 23.77 16.95 20.32 16.95 20.32 20.4 16.87 20.4 16.87 23.85 12.35 23.85 10.35 21.85 10.35 16.95 2 16.95 0 14.95 0 6.98 10.35 6.98 10.35 0.08 14.87 0.08 16.87 2.08 16.87 3.53 18.32 3.53 20.32 5.53 20.32 6.98 21.77 6.98 23.77 8.98"/><polygon class="cls-3" points="162.08 29.3 162.08 8.6 168.98 8.6 168.98 4.07 147.21 4.07 147.21 8.6 154.1 8.6 154.1 29.3 162.08 29.3"/><polygon class="cls-2" points="167.03 2.01 167.03 6.53 160.13 6.53 160.13 27.23 152.15 27.23 150.15 25.23 150.15 6.53 145.25 6.53 143.25 4.53 143.25 0.01 165.03 0.01 167.03 2.01"/><polygon class="cls-4" points="158.12 25.23 158.12 4.53 165.02 4.53 165.02 0.01 143.25 0.01 143.25 4.53 150.15 4.53 150.15 25.23 158.12 25.23"/><polygon class="cls-1" points="187.13 7.59 183.68 7.59 183.68 11.04 180.23 11.04 180.23 19.02 183.68 19.02 183.68 22.47 187.13 22.47 187.13 25.92 191.65 25.92 191.65 19.02 202 19.02 202 11.04 191.65 11.04 191.65 4.14 187.13 4.14 187.13 7.59"/><polygon class="cls-2" points="200.04 8.98 200.04 16.95 189.69 16.95 189.69 23.85 185.17 23.85 183.17 21.85 183.17 20.4 181.72 20.4 179.72 18.4 179.72 16.95 178.27 16.95 176.27 14.95 176.27 6.98 179.72 6.98 179.72 3.53 183.17 3.53 183.17 0.08 187.69 0.08 189.69 2.08 189.69 6.98 198.04 6.98 200.04 8.98"/><polygon class="cls-4" points="183.17 3.53 179.72 3.53 179.72 6.98 176.27 6.98 176.27 14.95 179.72 14.95 179.72 18.4 183.17 18.4 183.17 21.85 187.69 21.85 187.69 14.95 198.04 14.95 198.04 6.98 187.69 6.98 187.69 0.08 183.17 0.08 183.17 3.53"/><polygon class="cls-4" points="0 14.88 10.35 14.88 10.35 21.78 14.87 21.78 14.87 18.33 18.32 18.33 18.32 14.88 21.77 14.88 21.77 6.91 18.32 6.91 18.32 3.46 14.87 3.46 14.87 0.01 10.35 0.01 10.35 6.91 0 6.91 0 14.88"/><polygon class="cls-5" points="60.5 4.07 42.17 4.07 42.17 7.52 38.73 7.52 38.73 15.49 42.17 15.49 42.17 18.95 55.98 18.95 55.98 24.77 46.7 24.77 46.7 21.32 38.73 21.32 38.73 25.85 42.17 25.85 42.17 29.3 60.5 29.3 60.5 25.85 63.95 25.85 63.95 17.87 60.5 17.87 60.5 14.42 46.7 14.42 46.7 8.6 55.98 8.6 55.98 12.05 63.95 12.05 63.95 7.52 60.5 7.52 60.5 4.07"/><polygon class="cls-2" points="52.02 7.98 52.02 6.52 44.74 6.52 44.74 10.35 56.54 10.35 58.54 12.35 58.54 13.8 59.99 13.8 61.99 15.8 61.99 23.78 58.54 23.78 58.54 27.23 40.22 27.23 38.22 25.23 38.22 23.78 36.77 23.78 34.77 21.78 34.77 17.25 42.74 17.25 44.74 19.25 44.74 20.7 52.02 20.7 52.02 16.88 40.22 16.88 38.22 14.88 38.22 13.43 36.77 13.43 34.77 11.43 34.77 3.45 38.22 3.45 38.22 0 56.54 0 58.54 2 58.54 3.45 59.99 3.45 61.99 5.45 61.99 9.98 54.02 9.98 52.02 7.98"/><polygon class="cls-4" points="56.54 0.01 38.22 0.01 38.22 3.46 34.77 3.46 34.77 11.43 38.22 11.43 38.22 14.88 52.02 14.88 52.02 20.71 42.74 20.71 42.74 17.26 34.77 17.26 34.77 21.78 38.22 21.78 38.22 25.23 56.54 25.23 56.54 21.78 59.99 21.78 59.99 13.81 56.54 13.81 56.54 10.36 42.74 10.36 42.74 4.53 52.02 4.53 52.02 7.98 59.99 7.98 59.99 3.46 56.54 3.46 56.54 0.01"/><polygon class="cls-5" points="81.42 29.3 81.42 8.6 88.32 8.6 88.32 4.07 66.55 4.07 66.55 8.6 73.45 8.6 73.45 29.3 81.42 29.3"/><polygon class="cls-2" points="86.36 2 86.36 6.53 79.46 6.53 79.46 27.23 71.49 27.23 69.49 25.23 69.49 6.53 64.59 6.53 62.59 4.53 62.59 0.01 84.36 0.01 86.36 2"/><polygon class="cls-4" points="77.47 25.23 77.47 4.53 84.37 4.53 84.37 0.01 62.59 0.01 62.59 4.53 69.49 4.53 69.49 25.23 77.47 25.23"/><path class="cls-5" d="M190.45,276.2h9.28v6.9h8V264.78h-3.45v-3.45H200.8v-3.45H189.38v3.45h-3.45v3.45h-3.45V283.1h8Zm0-10.43h3.45V262.4h2.38v3.37h3.45v5.91h-9.28Z" transform="translate(-91.11 -253.81)"/><path class="cls-2" d="M203.76,260.72h-1.45v-1.46l-2-2h-1.45v-1.44l-2-2H185.43v3.44H182v3.46h-3.45V279l2,2h8v-6.9h7.28V279l2,2h8V262.72Zm-11.81,3v-3.37h.38v1.37l2,2h1.45v3.91H188.5v-3.91Z" transform="translate(-91.11 -253.81)"/><path class="cls-4" d="M186.5,272.14h9.28V279h8V260.71H200.3v-3.45h-3.45v-3.45H185.43v3.45H182v3.45h-3.45V279h8Zm0-10.44H190v-3.37h2.38v3.37h3.45v5.91H186.5Z" transform="translate(-91.11 -253.81)"/><g class="cls-6"><path class="cls-7" d="M232,272.76v-3.45h3.45v-8H232v-3.45H210.24v25.22h8V272.76h2.38v3.45H224v3.45h3.45v3.45h8v-4.52H232v-3.45h-3.45v-2.38Zm-4.52-4.52h-9.28v-5.83h9.28Z" transform="translate(-91.11 -253.81)"/></g><path class="cls-2" d="M230.06,270.69v-3.45h3.45v-8l-2-2h-1.45v-1.45l-2-2H206.29V279l2,2h8V270.69h.38v1.45l2,2h1.45v1.45l2,2h1.45V279l2,2h8v-4.52l-2-2h-1.45v-1.45l-2-2h-1.45v-.38Zm-6.52-6.52h-7.28v-3.83h7.28Z" transform="translate(-91.11 -253.81)"/><path class="cls-4" d="M228.06,268.7v-3.45h3.45v-8h-3.45v-3.45H206.29v25.23h8V268.7h2.38v3.45h3.45v3.45h3.45v3.45h8v-4.53h-3.45v-3.45h-3.45V268.7Zm-4.52-4.53h-9.28v-5.83h9.28Z" transform="translate(-91.11 -253.81)"/></g></svg>