<?xml version="1.0" encoding="UTF-8"?>
<svg width="36px" height="35px" viewBox="0 0 36 35" version="1.1" xmlns="http://www.w3.org/2000/svg" xmlns:xlink="http://www.w3.org/1999/xlink">
    <!-- Generator: Sketch 47.1 (45422) - http://www.bohemiancoding.com/sketch -->
    <title>Rectangle 4 Copy</title>
    <desc>Created with Sketch.</desc>
    <defs></defs>
    <g id="Design-Final" stroke="none" stroke-width="1" fill="none" fill-rule="evenodd">
        <g id="Score-Page---replicated-after-the-first-4-rounds" transform="translate(-546.000000, -14.000000)">
            <g id="Group-2" transform="translate(546.000000, 14.000000)">
                <rect id="Rectangle-4-Copy" x="0" y="0" width="36" height="35"></rect>
                <path d="M30,10.280855 C29.1181546,10.66419 28.1686917,10.9234237 27.1727417,11.0392515 C28.1898222,10.4435655 28.9702412,9.49901712 29.3379116,8.37383245 C28.3856313,8.92539356 27.3333333,9.32665427 26.2091918,9.54176311 C25.3132594,8.60548812 24.0327522,8.02083333 22.6156013,8.02083333 C19.8982215,8.02083333 17.693608,10.1788162 17.693608,12.8400986 C17.693608,13.2179179 17.735869,13.5847061 17.8203909,13.9377052 C13.7281211,13.7363854 10.100722,11.8197105 7.67071668,8.90057331 C7.24669836,9.61484496 7.00440218,10.4435655 7.00440218,11.3260633 C7.00440218,12.9972935 7.87356929,14.4727195 9.19492868,15.3372915 C8.38915302,15.3138502 7.62845571,15.0946046 6.96354992,14.7360899 L6.96354992,14.7953827 C6.96354992,17.131244 8.66103187,19.0796337 10.9149498,19.5208826 C10.5022011,19.6339526 10.0669132,19.6904876 9.6175383,19.6904876 C9.30058109,19.6904876 8.99066737,19.6615307 8.69061454,19.6049956 C9.31748547,21.5189127 11.1347068,22.9129834 13.2900158,22.9502138 C11.6052122,24.2436246 9.48089452,25.0144313 7.17485473,25.0144313 C6.77760169,25.0144313 6.38457475,24.9923688 6,24.948244 C8.17925691,26.3133577 10.7684451,27.1117424 13.5478077,27.1117424 C22.6057404,27.1117424 27.5573164,19.7690851 27.5573164,13.3999331 C27.5573164,13.1903399 27.5530903,12.9807467 27.5446381,12.7752901 C28.5067794,12.0954911 29.3421377,11.2474659 30,10.280855" id="Twitter" fill="#007DC4"></path>
            </g>
        </g>
    </g>
</svg>